<?xml version="1.0" encoding="UTF-8" standalone="no"?>
<!DOCTYPE svg PUBLIC "-//W3C//DTD SVG 1.1//EN" "http://www.w3.org/Graphics/SVG/1.1/DTD/svg11.dtd">
<svg width="100%" height="100%" viewBox="0 0 124 482" version="1.1" xmlns="http://www.w3.org/2000/svg" xmlns:xlink="http://www.w3.org/1999/xlink" xml:space="preserve" xmlns:serif="http://www.serif.com/" style="fill-rule:evenodd;clip-rule:evenodd;stroke-linejoin:round;stroke-miterlimit:2;">
    <path d="M61.772,357.96C95.865,357.96 123.544,385.639 123.544,419.732C123.544,453.825 95.865,481.504 61.772,481.504C27.679,481.504 0,453.825 0,419.732C0,385.639 27.679,357.96 61.772,357.96ZM61.772,179.232C95.865,179.232 123.544,206.911 123.544,241.004C123.544,275.097 95.865,302.776 61.772,302.776C27.679,302.776 0,275.097 0,241.004C0,206.911 27.679,179.232 61.772,179.232ZM61.772,0C95.865,0 123.544,27.679 123.544,61.772C123.544,95.865 95.865,123.544 61.772,123.544C27.679,123.544 0,95.865 0,61.772C0,27.679 27.679,0 61.772,0Z"/>
</svg>
