<?xml version="1.0" encoding="UTF-8" standalone="no"?>
<!DOCTYPE svg PUBLIC "-//W3C//DTD SVG 1.1//EN" "http://www.w3.org/Graphics/SVG/1.1/DTD/svg11.dtd">
<svg width="100%" height="100%" viewBox="0 0 332 332" version="1.1" xmlns="http://www.w3.org/2000/svg" xmlns:xlink="http://www.w3.org/1999/xlink" xml:space="preserve" xmlns:serif="http://www.serif.com/" style="fill-rule:evenodd;clip-rule:evenodd;stroke-linejoin:round;stroke-miterlimit:2;">
    <path d="M330.911,157.35C331.649,172.266 330.364,187.528 326.84,202.791C309.419,278.253 242.839,329.689 168.736,331.083L167.889,286.457C222.01,285.434 270.634,247.866 283.358,192.753C285.928,181.623 286.868,170.495 286.334,159.618L330.911,157.35ZM20.462,85.822L59.534,107.402C54.32,116.909 50.312,127.28 47.754,138.359C35.03,193.473 62.265,248.554 110.459,273.198L90.135,312.936C24.144,279.199 -13.15,203.782 4.272,128.321C7.784,113.107 13.295,98.87 20.462,85.822ZM75.334,26.818C111.697,3.178 157.236,-6.245 202.791,4.272C248.244,14.765 284.981,43.094 307.315,80.158L269.105,103.196C252.793,76.117 225.957,55.42 192.753,47.754C159.446,40.064 126.15,46.969 99.577,64.274L75.334,26.818Z"/>
</svg>
