<?xml version="1.0" encoding="UTF-8" standalone="no"?>
<!DOCTYPE svg PUBLIC "-//W3C//DTD SVG 1.1//EN" "http://www.w3.org/Graphics/SVG/1.1/DTD/svg11.dtd">
<svg width="100%" height="100%" viewBox="0 0 378 319" version="1.1" xmlns="http://www.w3.org/2000/svg" xmlns:xlink="http://www.w3.org/1999/xlink" xml:space="preserve" xmlns:serif="http://www.serif.com/" style="fill-rule:evenodd;clip-rule:evenodd;stroke-linejoin:round;stroke-miterlimit:2;">
    <path d="M377.423,274.591C377.423,282.323 371.155,288.591 363.423,288.591L333.396,288.591C334.663,290.696 335.391,293.162 335.391,295.798L335.391,304.706C335.391,312.438 329.123,318.706 321.391,318.706L289.651,318.706C281.919,318.706 275.651,312.438 275.651,304.706L275.651,295.798C275.651,293.162 276.379,290.696 277.646,288.591L99.847,288.591C101.114,290.696 101.842,293.162 101.842,295.798L101.842,304.706C101.842,312.438 95.574,318.706 87.842,318.706L56.102,318.706C48.37,318.706 42.102,312.438 42.102,304.706L42.102,295.798C42.102,293.162 42.83,290.696 44.097,288.591L14,288.591C6.268,288.591 0,282.323 0,274.591L0,14C0,6.268 6.268,0 14,0L363.423,0C371.155,0 377.423,6.268 377.423,14L377.423,274.591ZM349.423,158.621L28,158.621L28,260.591L349.423,260.591L349.423,158.621ZM241.744,199.511C241.744,191.779 235.476,185.511 227.744,185.511L149.77,185.511C142.038,185.511 135.77,191.779 135.77,199.511L135.77,209.229C135.77,216.961 142.038,223.229 149.77,223.229L227.744,223.229C235.476,223.229 241.744,216.961 241.744,209.229L241.744,199.511ZM349.423,129.97L349.423,28L28,28L28,129.97L349.423,129.97ZM241.744,68.407C241.744,60.675 235.476,54.407 227.744,54.407L149.77,54.407C142.038,54.407 135.77,60.675 135.77,68.407L135.77,78.176C135.77,85.908 142.038,92.176 149.77,92.176L227.744,92.176C235.476,92.176 241.744,85.908 241.744,78.176L241.744,68.407Z"/>
</svg>
