<?xml version="1.0" encoding="UTF-8" standalone="no"?>
<!DOCTYPE svg PUBLIC "-//W3C//DTD SVG 1.1//EN" "http://www.w3.org/Graphics/SVG/1.1/DTD/svg11.dtd">
<svg width="100%" height="100%" viewBox="0 0 261 255" version="1.1" xmlns="http://www.w3.org/2000/svg" xmlns:xlink="http://www.w3.org/1999/xlink" xml:space="preserve" xmlns:serif="http://www.serif.com/" style="fill-rule:evenodd;clip-rule:evenodd;stroke-linejoin:round;stroke-miterlimit:2;">
    <g transform="matrix(1,0,0,1,-96.1175,-51.501)">
        <g transform="matrix(0.523565,0,0,0.759723,-119.679,-765.375)">
            <g transform="matrix(1.90998,0,0,1.31627,228.585,1007.44)">
                <path d="M211.479,54.91L217.694,59.826L354.836,198.564L356.693,202.778L354.61,206.971L257.855,303.976L252.282,305.899L246.693,303.198L114.512,171.038L106.521,163.499L100.282,155.123L97.883,144.045L96.117,66.77L96.319,61.055L99.048,55.345L104.966,52.289L111.86,51.501L202.136,52.526L211.479,54.91ZM162.286,79.651L174.386,82.673L183.906,89.974L189.374,99.129L191.279,109.668L188.933,121.312L182.961,130.397L173.947,136.872L161.269,139.678L150.153,137.549L140.229,131.058L133.844,121.862L131.259,109.668L133.714,97.77L140.165,88.341L149.52,82.049L162.286,79.651Z"/>
            </g>
        </g>
    </g>
</svg>
