<?xml version="1.0" encoding="UTF-8" standalone="no"?>
<!DOCTYPE svg PUBLIC "-//W3C//DTD SVG 1.1//EN" "http://www.w3.org/Graphics/SVG/1.1/DTD/svg11.dtd">
<svg width="100%" height="100%" viewBox="0 0 239 228" version="1.1" xmlns="http://www.w3.org/2000/svg" xmlns:xlink="http://www.w3.org/1999/xlink" xml:space="preserve" xmlns:serif="http://www.serif.com/" style="fill-rule:evenodd;clip-rule:evenodd;stroke-linejoin:round;stroke-miterlimit:2;">
    <path d="M147.54,0.038L148.486,0.151L149.421,0.339L150.337,0.601L151.23,0.934L152.094,1.338L152.922,1.808L153.711,2.343L154.455,2.939L155.15,3.592L155.79,4.298L156.372,5.053L156.893,5.851L157.348,6.689L170.335,33L226.77,33L227.761,33.041L228.745,33.164L229.716,33.367L230.666,33.65L231.59,34.011L232.481,34.446L233.333,34.954L234.141,35.53L234.897,36.171L235.599,36.873L236.24,37.629L236.816,38.437L237.324,39.289L237.759,40.18L238.12,41.104L238.403,42.054L238.606,43.025L238.729,44.009L238.77,45L238.729,45.991L238.606,46.975L238.403,47.946L238.12,48.896L237.759,49.82L237.324,50.711L236.816,51.563L236.24,52.371L235.599,53.127L234.897,53.829L234.141,54.47L233.333,55.046L232.481,55.554L231.59,55.989L230.666,56.35L229.716,56.633L228.745,56.836L227.761,56.959L226.77,57L213.411,57L213.411,216.459C213.411,222.81 208.262,227.959 201.911,227.959L36.566,227.959C30.215,227.959 25.066,222.81 25.066,216.459L25.066,56.969L11.993,56.961L11.002,56.919L10.018,56.796L9.047,56.592L8.097,56.308L7.173,55.947L6.282,55.511L5.43,55.003L4.624,54.426L3.867,53.785L3.166,53.083L2.526,52.326L1.95,51.518L1.443,50.666L1.008,49.774L0.648,48.85L0.365,47.9L0.162,46.929L0.04,45.944L0,44.953L0.042,43.963L0.165,42.978L0.369,42.008L0.653,41.058L1.014,40.134L1.45,39.243L1.958,38.391L2.535,37.585L3.176,36.828L3.878,36.127L4.635,35.487L5.443,34.911L6.295,34.404L7.186,33.969L8.111,33.609L9.061,33.326L10.032,33.123L11.016,33.001L12.007,32.961L67.453,32.995L79.728,6.893L80.176,6.033L80.692,5.212L81.272,4.436L81.913,3.709L82.61,3.036L83.36,2.421L84.156,1.869L84.995,1.383L85.87,0.966L86.776,0.621L87.707,0.351L88.657,0.156L89.619,0.039L90.588,0L146.588,0L147.54,0.038ZM48.066,57.79L48.066,204.959L190.411,204.959L190.411,57.79L48.066,57.79ZM147.429,78.064L148.056,78.114L148.678,78.196L149.296,78.31L149.907,78.457L150.509,78.635L151.102,78.845L151.682,79.085L152.249,79.356L152.801,79.656L153.337,79.984L153.855,80.34L154.353,80.722L154.831,81.13L155.286,81.563L155.719,82.018L156.127,82.496L156.509,82.994L156.865,83.512L157.193,84.048L157.493,84.6L157.764,85.167L158.004,85.747L158.214,86.34L158.392,86.942L158.539,87.553L158.653,88.171L158.735,88.794L158.785,89.42L158.801,90.048L158.801,172.629L158.785,173.257L158.735,173.883L158.653,174.506L158.539,175.124L158.392,175.735L158.214,176.337L158.004,176.93L157.764,177.51L157.493,178.077L157.193,178.629L156.865,179.165L156.509,179.683L156.127,180.181L155.719,180.659L155.286,181.114L154.831,181.547L154.353,181.955L153.855,182.337L153.337,182.693L152.801,183.021L152.249,183.321L151.682,183.592L151.102,183.832L150.509,184.042L149.907,184.22L149.296,184.367L148.678,184.481L148.056,184.563L147.429,184.613L146.801,184.629L146.173,184.613L145.547,184.563L144.924,184.481L144.306,184.367L143.695,184.22L143.093,184.042L142.501,183.832L141.92,183.592L141.353,183.321L140.801,183.021L140.266,182.693L139.748,182.337L139.249,181.955L138.772,181.547L138.316,181.114L137.883,180.659L137.475,180.181L137.093,179.683L136.737,179.165L136.409,178.629L136.109,178.077L135.839,177.51L135.598,176.93L135.389,176.337L135.21,175.735L135.063,175.124L134.949,174.506L134.867,173.883L134.818,173.257L134.801,172.629L134.801,90.048L134.818,89.42L134.867,88.794L134.949,88.171L135.063,87.553L135.21,86.942L135.389,86.34L135.598,85.747L135.839,85.167L136.109,84.6L136.409,84.048L136.737,83.512L137.093,82.994L137.475,82.496L137.883,82.018L138.316,81.563L138.772,81.13L139.249,80.722L139.748,80.34L140.266,79.984L140.801,79.656L141.353,79.356L141.92,79.085L142.501,78.845L143.093,78.635L143.695,78.457L144.306,78.31L144.924,78.196L145.547,78.114L146.173,78.064L146.801,78.048L147.429,78.064ZM92.429,78.064L93.056,78.114L93.678,78.196L94.296,78.31L94.907,78.457L95.509,78.635L96.102,78.845L96.682,79.085L97.249,79.356L97.801,79.656L98.337,79.984L98.855,80.34L99.353,80.722L99.831,81.13L100.286,81.563L100.719,82.018L101.127,82.496L101.509,82.994L101.865,83.512L102.193,84.048L102.493,84.6L102.764,85.167L103.004,85.747L103.214,86.34L103.392,86.942L103.539,87.553L103.653,88.171L103.735,88.794L103.785,89.42L103.801,90.048L103.801,172.629L103.785,173.257L103.735,173.883L103.653,174.506L103.539,175.124L103.392,175.735L103.214,176.337L103.004,176.93L102.764,177.51L102.493,178.077L102.193,178.629L101.865,179.165L101.509,179.683L101.127,180.181L100.719,180.659L100.286,181.114L99.831,181.547L99.353,181.955L98.855,182.337L98.337,182.693L97.801,183.021L97.249,183.321L96.682,183.592L96.102,183.832L95.509,184.042L94.907,184.22L94.296,184.367L93.678,184.481L93.056,184.563L92.429,184.613L91.801,184.629L91.173,184.613L90.547,184.563L89.924,184.481L89.306,184.367L88.695,184.22L88.093,184.042L87.501,183.832L86.92,183.592L86.353,183.321L85.801,183.021L85.266,182.693L84.748,182.337L84.249,181.955L83.772,181.547L83.316,181.114L82.883,180.659L82.475,180.181L82.093,179.683L81.737,179.165L81.409,178.629L81.109,178.077L80.839,177.51L80.598,176.93L80.389,176.337L80.21,175.735L80.063,175.124L79.949,174.506L79.867,173.883L79.818,173.257L79.801,172.629L79.801,90.048L79.818,89.42L79.867,88.794L79.949,88.171L80.063,87.553L80.21,86.942L80.389,86.34L80.598,85.747L80.839,85.167L81.109,84.6L81.409,84.048L81.737,83.512L82.093,82.994L82.475,82.496L82.883,82.018L83.316,81.563L83.772,81.13L84.249,80.722L84.748,80.34L85.266,79.984L85.801,79.656L86.353,79.356L86.92,79.085L87.501,78.845L88.093,78.635L88.695,78.457L89.306,78.31L89.924,78.196L90.547,78.114L91.173,78.064L91.801,78.048L92.429,78.064ZM144.454,34.79L139.128,24L98.205,24L93.131,34.79L144.454,34.79Z"/>
</svg>
