<?xml version="1.0" encoding="UTF-8" standalone="no"?>
<!DOCTYPE svg PUBLIC "-//W3C//DTD SVG 1.1//EN" "http://www.w3.org/Graphics/SVG/1.1/DTD/svg11.dtd">
<svg width="100%" height="100%" viewBox="0 0 1074 1074" version="1.1" xmlns="http://www.w3.org/2000/svg" xmlns:xlink="http://www.w3.org/1999/xlink" xml:space="preserve" xmlns:serif="http://www.serif.com/" style="fill-rule:evenodd;clip-rule:evenodd;stroke-linejoin:round;stroke-miterlimit:1.41421;">
    <g transform="matrix(-54.2533,-472.456,-454.281,52.1662,465.912,621.805)">
        <g id="body">
            <path d="M0.736,0.464C0.736,0.464 0.655,0.49 0.312,0.708C0.312,0.708 0.099,0.55 -0.246,0.087C-0.246,0.087 -0.566,0.431 -0.587,-0.035C-0.587,-0.035 -0.958,-0.126 -0.64,-0.508C-0.64,-0.508 -0.51,-1.162 0.065,-1.102C0.065,-1.102 0.456,-1.128 0.576,-0.857C0.576,-0.857 0.783,-0.567 0.829,-0.167C0.852,0.03 0.835,0.235 0.736,0.464Z" style="fill:url(#_Radial1);fill-rule:nonzero;"/>
        </g>
    </g>
    <g id="head" transform="matrix(1.42376,0.0158624,-0.0158624,1.42376,-379.291,-499.112)">
        <g transform="matrix(1.41202e-15,235.37,258.43,1.41202e-15,660.267,558.385)">
            <g id="Layer-29" serif:id="Layer 29">
                <path d="M-0.756,0.101C-0.756,0.043 -0.86,0.02 -0.86,0.02C-0.82,0.003 -0.785,0.02 -0.785,0.02C-0.82,-0.009 -0.924,-0.014 -0.924,-0.014C-0.767,-0.035 -0.701,-0.171 -0.701,-0.171C-0.762,-0.108 -0.906,-0.148 -0.906,-0.148C-0.784,-0.13 -0.603,-0.495 -0.603,-0.495C-0.282,-1.131 0.207,-0.979 0.207,-0.979C0.238,-0.972 0.27,-0.961 0.301,-0.947C0.435,-0.885 0.554,-0.769 0.554,-0.769C1.144,0.004 0.588,0.703 0.588,0.703C0.43,0.908 0.202,0.954 0.202,0.954C-0.425,1.076 -0.639,0.376 -0.639,0.376C-0.688,0.254 -0.797,0.241 -0.797,0.241C-0.895,0.206 -0.912,0.179 -0.912,0.179C-0.744,0.231 -0.756,0.101 -0.756,0.101Z" style="fill:url(#_Radial2);fill-rule:nonzero;"/>
            </g>
        </g>
        <g id="Layer-37" serif:id="Layer 37">
            <g transform="matrix(-142.643,-94.2463,-94.2463,142.643,538.152,667.216)">
                <path d="M1.223,-0.283C1.228,-0.206 1.214,-0.142 1.193,-0.17C1.152,-0.224 1.04,-0.145 1.04,-0.145C1.123,-0.15 1.135,-0.082 1.135,-0.082C1.003,-0.093 0.878,0.059 0.878,0.059C1.008,0.07 1.001,0.122 1.001,0.122C0.677,0.321 -0.086,-0.09 0.153,-0.02C0.418,0.058 0.447,-0.379 0.447,-0.379L1.152,-0.465C1.154,-0.464 1.155,-0.463 1.157,-0.462C1.2,-0.434 1.219,-0.353 1.223,-0.283Z" style="fill:url(#_Linear3);fill-rule:nonzero;"/>
            </g>
            <g transform="matrix(148.715,-76.7562,-76.7562,-148.715,762.99,650.372)">
                <path d="M1.151,0.614L0.259,0.366C0.259,0.366 0.309,-0.17 -0.05,-0.094C-0.373,-0.025 0.737,-0.439 1.116,-0.173C1.116,-0.173 1.143,-0.121 0.967,-0.048C0.967,-0.048 1.036,0.056 1.21,0.052C1.21,0.052 1.18,0.134 1.073,0.123C1.073,0.123 1.204,0.282 1.267,0.164C1.289,0.122 1.293,0.232 1.272,0.354C1.253,0.463 1.216,0.581 1.156,0.612C1.154,0.613 1.152,0.614 1.151,0.614Z" style="fill:url(#_Linear4);fill-rule:nonzero;"/>
            </g>
        </g>
        <g transform="matrix(-3.59291,-224.557,-224.557,3.59291,651.845,665.181)">
            <g id="Layer-35" serif:id="Layer 35">
                <path d="M0.751,-0.367C0.669,-0.336 0.709,-0.27 0.621,-0.198C0.224,0.128 0.643,0.334 0.643,0.334C0.643,0.334 0.713,0.523 0.59,0.482C0.466,0.442 0.161,0.557 0.161,0.557L0.01,0.512L-0.076,0.433L-0.169,0.319L-0.513,0.143L-0.658,-0.044L-0.493,-0.204C-0.493,-0.204 -0.263,-0.259 -0.149,-0.323C-0.034,-0.386 0.14,-0.557 0.14,-0.557C0.226,-0.398 0.587,-0.356 0.587,-0.356C0.587,-0.356 0.767,-0.387 0.767,-0.376C0.767,-0.375 0.762,-0.372 0.751,-0.367Z" style="fill:url(#_Linear5);fill-rule:nonzero;"/>
            </g>
        </g>
        <g id="Eyes">
            <g id="Layer-33" serif:id="Layer 33">
                <g transform="matrix(0.0618561,1.14143,1.14143,-0.0618561,764.24,572.412)">
                    <path d="M40.671,-38.526C71.287,-38.526 96.108,-20.29 96.108,2.205C96.108,24.699 71.287,42.934 40.671,42.934C10.054,42.935 -14.766,24.699 -14.767,2.204C-14.767,-20.291 10.054,-38.526 40.671,-38.526" style="fill-rule:nonzero;"/>
                </g>
                <g transform="matrix(0.0621841,-1.14749,-1.14749,-0.0621841,516.381,575.193)">
                    <path d="M-40.671,-38.526C-71.287,-38.526 -96.108,-20.29 -96.108,2.205C-96.108,24.699 -71.287,42.934 -40.671,42.934C-10.054,42.935 14.766,24.699 14.767,2.204C14.767,-20.291 -10.054,-38.526 -40.671,-38.526" style="fill-rule:nonzero;"/>
                </g>
            </g>
            <g id="Layer-36" serif:id="Layer 36">
                <g transform="matrix(1.16791,0,0,1.16791,484.425,684.98)">
                    <path d="M0,-73.162C0,-73.162 -14.849,-50.8 0,-19.452C0,-19.452 45.214,0 52.306,-57.574C52.306,-57.574 18.149,-16.328 0,-73.162" style="fill:rgb(255,152,0);fill-rule:nonzero;"/>
                </g>
                <g transform="matrix(1.18634,0,0,1.18634,735.968,655.025)">
                    <path d="M0,-33.917C0,-33.917 -1.697,-7.127 26.823,12.616C26.823,12.616 75.71,6.888 53.101,-46.533C53.101,-46.533 44.107,6.259 0,-33.917" style="fill:rgb(255,152,0);fill-rule:nonzero;"/>
                </g>
                <g transform="matrix(-3.01107e-17,-1.08485,-1.01695,-2.50087e-17,498.19,589.026)">
                    <path d="M-10.222,-10.222C-15.868,-10.222 -20.444,-5.645 -20.444,0C-20.444,5.646 -15.868,10.222 -10.222,10.222C-4.576,10.222 0,5.646 0,0C0,-5.645 -4.576,-10.222 -10.222,-10.222" style="fill:white;fill-rule:nonzero;"/>
                </g>
                <g transform="matrix(-2.4465e-17,-1.08485,-1.01993,-2.33415e-17,748.07,594.23)">
                    <path d="M-10.222,-10.222C-15.868,-10.222 -20.444,-5.645 -20.444,0C-20.444,5.646 -15.868,10.222 -10.222,10.222C-4.576,10.222 0,5.646 0,0C0,-5.645 -4.576,-10.222 -10.222,-10.222" style="fill:white;fill-rule:nonzero;"/>
                </g>
            </g>
        </g>
        <g id="Layer-34" serif:id="Layer 34">
            <g transform="matrix(-279.814,-51.9161,-50.2578,289.047,617.398,864.088)">
                <path d="M1.014,-0.656C0.893,-0.626 0.766,-0.434 0.766,-0.434C0.884,-0.518 1.008,-0.457 1.008,-0.457C0.924,-0.417 0.903,-0.372 0.903,-0.372C0.436,0.425 -0.097,-0.09 -0.097,-0.09C-0.136,-0.167 -0.018,-0.301 -0.018,-0.301C0.093,-0.33 0.103,-0.515 0.103,-0.515C0.115,-0.649 0.25,-0.691 0.25,-0.691C0.209,-0.603 0.227,-0.565 0.227,-0.565C0.3,-0.745 0.361,-0.712 0.361,-0.712C0.326,-0.68 0.315,-0.618 0.315,-0.618C0.405,-0.698 0.58,-0.657 0.58,-0.657C0.661,-0.648 0.807,-0.662 0.807,-0.662C0.873,-0.684 0.922,-0.684 0.956,-0.678C0.995,-0.671 1.014,-0.656 1.014,-0.656Z" style="fill:url(#_Linear6);fill-rule:nonzero;"/>
            </g>
            <g transform="matrix(293.428,-87.8625,-80.8256,-269.927,679.15,765.102)">
                <path d="M0.754,0.244C0.543,0.397 0.256,0.257 0.256,0.257C0.226,0.258 0.262,0.376 0.262,0.376C0.221,0.345 0.172,0.213 0.172,0.213C0.151,0.207 0.196,0.37 0.196,0.37C0.108,0.344 0.058,0.196 0.058,0.196C0.058,0.196 0.036,0.059 -0.042,0.004C-0.042,0.004 -0.176,-0.094 -0.101,-0.193C0.054,-0.399 0.342,-0.378 0.342,-0.378C0.656,-0.316 0.811,-0.044 0.811,-0.044C0.887,0.089 0.958,0.119 0.958,0.119C0.921,0.136 0.852,0.092 0.852,0.092C0.818,0.074 0.696,0.086 0.696,0.086C0.84,0.117 0.898,0.252 0.898,0.252C0.85,0.169 0.754,0.244 0.754,0.244Z" style="fill:url(#_Linear7);fill-rule:nonzero;"/>
            </g>
        </g>
        <g id="Layer-32" serif:id="Layer 32">
            <g transform="matrix(-194,-164,-164,194,595.265,597.581)">
                <path d="M0.927,0.037C0.987,0.069 1.047,0.05 1.047,0.05C0.907,0.14 0.796,0.141 0.731,0.129C0.802,0.169 0.82,0.246 0.82,0.246C0.745,0.212 0.735,0.181 0.66,0.199C0.584,0.217 0.553,0.235 0.352,0.15C0.151,0.066 -0.07,0.08 -0.07,0.08C-0.009,-0.008 0.053,-0.066 0.108,-0.104C0.217,-0.18 0.3,-0.179 0.3,-0.179C0.382,-0.174 0.515,-0.238 0.515,-0.238C0.511,-0.171 0.354,-0.084 0.354,-0.084C0.545,-0.088 0.696,-0.246 0.696,-0.246C0.702,-0.161 0.579,-0.043 0.579,-0.043C0.728,-0.11 0.881,-0.058 0.881,-0.058C1.041,-0.026 1.154,-0.149 1.154,-0.149C1.074,0.039 0.927,0.037 0.927,0.037Z" style="fill:url(#_Linear8);fill-rule:nonzero;"/>
            </g>
            <g transform="matrix(184,-172,-172,-184,715.08,585.077)">
                <path d="M0.828,0.075C0.828,0.075 0.659,0.142 0.49,0.076C0.49,0.076 0.633,0.2 0.63,0.296C0.63,0.296 0.44,0.141 0.227,0.148C0.227,0.148 0.449,0.197 0.457,0.271C0.457,0.271 0.276,0.235 0.185,0.246C0.185,0.246 -0.025,0.259 -0.241,-0.02C-0.241,-0.02 0.006,-0.018 0.227,-0.125C0.447,-0.232 0.482,-0.213 0.567,-0.198C0.653,-0.183 0.678,-0.205 0.729,-0.296C0.729,-0.296 0.722,-0.183 0.646,-0.126C0.721,-0.149 0.853,-0.163 1.02,-0.068C1.02,-0.068 0.976,-0.064 0.91,-0.024C0.91,-0.024 1.037,-0.045 1.136,0.159C1.136,0.159 1.005,0.029 0.828,0.075Z" style="fill:url(#_Linear9);fill-rule:nonzero;"/>
            </g>
        </g>
    </g>
    <g id="tail" transform="matrix(1.42385,0,0,1.42385,-411.542,-545.19)">
        <g transform="matrix(468.986,345.016,295.896,-546.839,281.211,552.072)">
            <path d="M0.083,-0.085C0.083,-0.085 0.257,-0.082 0.278,-0.109C0.278,-0.109 0.239,-0.086 0.121,-0.155C0.121,-0.155 0.262,-0.196 0.304,-0.318C0.304,-0.318 0.369,-0.401 0.5,-0.354C0.5,-0.354 0.384,-0.422 0.327,-0.44C0.327,-0.44 0.421,-0.495 0.556,-0.439C0.581,-0.429 0.596,-0.426 0.596,-0.426C0.598,-0.508 1.311,-0.059 1.311,-0.059C1.323,-0.136 1.257,0.352 1.257,0.352C1.347,0.288 1.108,0.177 1.108,0.177C1.179,0.179 1.204,0.208 1.204,0.208C1.204,0.208 1.066,-0.001 0.64,0.101C0.64,0.101 0.679,0.045 0.734,0.045C0.734,0.045 0.583,0.046 0.423,0.032C0.423,0.032 0.478,-0.012 0.52,-0.034C0.453,-0.017 0.32,0.013 0.262,-0.008C0.262,-0.008 0.379,-0.032 0.362,-0.074C0.362,-0.074 0.305,-0.006 0.18,-0.045C0.16,-0.051 0.096,-0.065 0.083,-0.085Z" style="fill:url(#_Linear10);fill-rule:nonzero;"/>
        </g>
        <g transform="matrix(312.335,317.956,272.689,-364.184,447.475,662.229)">
            <path d="M0.105,-0.075C0.154,-0.114 0.256,-0.162 0.37,-0.131C0.485,-0.099 0.667,0.022 0.667,0.022L0.824,0.112L0.799,0.168L0.677,0.183C0.677,0.183 0.515,0.159 0.373,0.174C0.373,0.174 0.438,0.123 0.483,0.114C0.483,0.114 0.14,0.049 0.1,0.038C0.1,0.038 0.209,-0.016 0.244,-0.025C0.244,-0.025 0.014,-0.019 -0.027,-0.027C-0.027,-0.027 0.059,-0.038 0.105,-0.075Z" style="fill:url(#_Linear11);fill-rule:nonzero;"/>
        </g>
        <g transform="matrix(544.68,234.694,201.281,-635.098,398.861,822.051)">
            <path d="M-0.2,0.132C-0.2,0.132 -0.124,0.107 -0.061,0.027C-0.061,0.027 -0.043,0.004 -0.018,-0.008C0.01,-0.021 0.046,-0.025 0.055,-0.026C0.088,-0.029 0.223,-0.024 0.261,0.005C0.261,0.005 0.169,-0.06 0.035,-0.091C0.035,-0.091 0.113,-0.139 0.255,-0.103C0.255,-0.103 0.408,-0.046 0.425,-0.036C0.505,0.006 0.783,-0.008 0.783,-0.008L0.946,0.095L0.985,0.216L0.979,0.263L0.884,0.189L0.759,0.126L0.519,0.082C0.519,0.082 0.324,0.161 0.233,0.162C0.233,0.162 0.262,0.122 0.285,0.105C0.285,0.105 0.14,0.108 0.094,0.152C0.094,0.152 0.1,0.108 0.14,0.089C0.18,0.071 0.133,0.087 0.133,0.087C0.133,0.087 -0.022,0.104 -0.068,0.16C-0.068,0.16 -0.069,0.108 -0.046,0.097C-0.067,0.105 -0.184,0.144 -0.2,0.132Z" style="fill:url(#_Linear12);fill-rule:nonzero;"/>
        </g>
        <g transform="matrix(130.265,354.805,304.291,-151.89,682.817,799.923)">
            <path d="M-0.157,-1.066C-0.199,-1.176 -0.213,-1.166 -0.213,-1.166C0.12,-1.108 0.158,-0.883 0.158,-0.883C0.15,-0.955 0.122,-1.017 0.088,-1.068C0.029,-1.155 -0.026,-1.2 -0.026,-1.2C0.163,-1.186 0.356,-0.899 0.356,-0.899C0.318,-1.014 0.225,-1.155 0.225,-1.155C0.288,-1.093 0.437,-0.967 0.487,-0.857C0.511,-0.805 0.533,-0.754 0.546,-0.711C0.57,-0.637 0.611,-0.502 0.611,-0.502C0.613,-0.654 0.56,-0.818 0.56,-0.818C0.61,-0.757 0.725,-0.554 0.76,-0.423C0.802,-0.265 0.827,-0.061 0.827,-0.061C0.856,-0.182 0.827,-0.279 0.827,-0.279C0.853,-0.201 0.917,-0.113 0.899,0.041C0.879,0.222 0.849,0.279 0.849,0.279C0.89,0.249 0.939,0.079 0.939,0.079C0.958,0.165 0.969,0.288 0.944,0.382C0.885,0.603 0.725,0.771 0.725,0.771L0.606,0.689C0.673,0.598 0.685,0.526 0.685,0.526C0.734,0.36 0.688,0.249 0.622,0.146C0.567,0.058 0.485,-0.006 0.466,-0.029C0.334,-0.166 0.322,-0.198 0.281,-0.454C0.265,-0.554 0.235,-0.674 0.161,-0.784C0.052,-0.946 -0.109,-1.084 -0.109,-1.084C-0.012,-0.923 0,-0.807 0,-0.807C-0.104,-1.019 -0.451,-1.013 -0.451,-1.013C-0.29,-1.181 -0.157,-1.066 -0.157,-1.066Z" style="fill:url(#_Radial13);fill-rule:nonzero;"/>
        </g>
        <g transform="matrix(459.087,31.5913,31.0515,-613.494,433.213,999.914)">
            <path d="M0.009,-0.005C0.009,-0.005 0.167,-0.04 0.29,-0.028C0.397,-0.018 0.475,0.006 0.498,0.021C0.498,0.021 0.433,-0.026 0.227,-0.092C0.227,-0.092 0.337,-0.087 0.452,-0.065C0.524,-0.05 0.593,-0.034 0.617,-0.021C0.617,-0.021 0.537,-0.075 0.508,-0.114C0.508,-0.114 0.722,-0.069 0.816,-0.04C0.816,-0.04 0.988,0.013 1.108,0.13C1.108,0.13 1.005,0.066 0.899,0.051C0.836,0.043 0.76,0.054 0.696,0.07C0.631,0.087 0.583,0.112 0.49,0.11C0.398,0.107 0.307,-0.001 0.009,-0.005Z" style="fill:url(#_Linear14);fill-rule:nonzero;"/>
        </g>
        <g transform="matrix(435.643,198.635,170.356,-507.96,432.396,705.05)">
            <path d="M0.897,0.09C0.897,0.09 0.997,0.088 1.067,0.124C1.067,0.124 0.912,-0.021 0.609,0.037C0.609,0.037 0.659,-0.039 0.73,-0.048C0.73,-0.048 0.56,-0.046 0.437,-0.008C0.437,-0.008 0.464,-0.057 0.541,-0.088C0.541,-0.088 0.932,-0.231 1.2,0.081C1.2,0.081 1.209,-0.075 1.148,-0.153C1.148,-0.153 1.206,-0.1 1.245,-0.042C1.262,-0.017 1.276,0.009 1.279,0.032C1.279,0.032 1.313,-0.069 1.21,-0.257C1.192,-0.29 1.17,-0.308 1.143,-0.346C1.143,-0.346 1.267,-0.245 1.308,-0.09C1.308,-0.09 1.29,-0.177 1.306,-0.2C1.306,-0.2 1.399,0.129 1.277,0.258C1.277,0.258 1.206,0.346 1.096,0.325C1.096,0.325 1.173,0.219 0.897,0.09Z" style="fill:url(#_Linear15);fill-rule:nonzero;"/>
        </g>
        <g transform="matrix(69.6227,112.75,96.6982,-81.1803,335.566,603.487)">
            <path d="M-0.061,-0.371C-0.061,-0.371 0.048,-0.016 1.075,0.09L1.352,0.132C1.352,0.132 1.038,0.344 0.665,0.283C0.665,0.283 0.991,0.251 1.067,0.176C1.067,0.176 0.892,0.303 0.48,0.105C0.328,0.031 0.236,0.017 0.108,-0.121C0.068,-0.163 -0.073,-0.342 -0.061,-0.371Z" style="fill:url(#_Linear16);fill-rule:nonzero;"/>
        </g>
        <g transform="matrix(49.3161,80.0528,68.6557,-57.5027,486.512,640.301)">
            <path d="M1.371,-0.407C1.371,-0.407 0.885,-0.209 0.524,-0.132C0.524,-0.132 1.163,0.162 1.626,0.373C1.835,0.468 2.009,0.547 2.072,0.574C1.896,0.5 0.529,-0.077 0.348,-0.214C0.348,-0.214 0.606,-0.291 0.762,-0.379C0.762,-0.379 0.238,-0.524 0.056,-0.582C0.056,-0.582 1.134,-0.437 1.371,-0.407ZM2.091,0.582C2.086,0.58 2.08,0.577 2.072,0.574C2.084,0.579 2.091,0.582 2.091,0.582Z" style="fill:url(#_Linear17);fill-rule:nonzero;"/>
        </g>
        <g transform="matrix(269.365,-421.001,-361.063,-314.08,791.563,1186.75)">
            <path d="M0.868,0.074C0.868,0.074 0.775,0.04 0.683,0.067C0.683,0.067 0.745,-0.004 0.787,-0.002C0.787,-0.002 0.734,-0.035 0.607,-0.026C0.607,-0.026 0.663,-0.06 0.82,-0.041C0.82,-0.041 0.756,-0.089 0.721,-0.088C0.721,-0.088 0.812,-0.111 0.869,-0.022C0.869,-0.022 0.918,0.053 0.901,0.129C0.901,0.129 0.899,0.098 0.868,0.074Z" style="fill:url(#_Linear18);fill-rule:nonzero;"/>
        </g>
    </g>
    <defs>
        <radialGradient id="_Radial1" cx="0" cy="0" r="1" gradientUnits="userSpaceOnUse" gradientTransform="matrix(0.998069,0.0621187,0.0651034,-1.04602,0,-0.0954237)"><stop offset="0" style="stop-color:rgb(66,13,242);stop-opacity:1"/><stop offset="0.05" style="stop-color:rgb(66,13,242);stop-opacity:1"/><stop offset="0.69" style="stop-color:rgb(127,97,228);stop-opacity:1"/><stop offset="1" style="stop-color:rgb(66,13,242);stop-opacity:1"/></radialGradient>
        <radialGradient id="_Radial2" cx="0" cy="0" r="1" gradientUnits="userSpaceOnUse" gradientTransform="matrix(0.91374,0.0105641,0.0105634,-0.913679,0.00824792,-0.0264128)"><stop offset="0" style="stop-color:rgb(209,195,255);stop-opacity:1"/><stop offset="0.38" style="stop-color:rgb(127,97,228);stop-opacity:1"/><stop offset="0.77" style="stop-color:rgb(66,13,242);stop-opacity:1"/><stop offset="1" style="stop-color:rgb(78,0,8);stop-opacity:1"/></radialGradient>
        <linearGradient id="_Linear3" x1="0" y1="0" x2="1" y2="0" gradientUnits="userSpaceOnUse" gradientTransform="matrix(1.37325,0.0737038,0.0737038,-1.37325,8.88178e-16,-0.143957)"><stop offset="0" style="stop-color:rgb(209,195,255);stop-opacity:1"/><stop offset="0.48" style="stop-color:rgb(130,98,232);stop-opacity:1"/><stop offset="0.74" style="stop-color:rgb(76,25,241);stop-opacity:1"/><stop offset="1" style="stop-color:rgb(78,0,8);stop-opacity:1"/></linearGradient>
        <linearGradient id="_Linear4" x1="0" y1="0" x2="1" y2="0" gradientUnits="userSpaceOnUse" gradientTransform="matrix(1.48303,0.149346,0.149346,-1.48303,-8.88178e-16,0.175833)"><stop offset="0" style="stop-color:rgb(172,147,255);stop-opacity:1"/><stop offset="0.37" style="stop-color:rgb(130,98,232);stop-opacity:1"/><stop offset="0.72" style="stop-color:rgb(79,30,240);stop-opacity:1"/><stop offset="1" style="stop-color:rgb(78,0,8);stop-opacity:1"/></linearGradient>
        <linearGradient id="_Linear5" x1="0" y1="0" x2="1" y2="0" gradientUnits="userSpaceOnUse" gradientTransform="matrix(1.54286,-0.00970844,-0.00970844,-1.54286,-0.448536,-0.00798575)"><stop offset="0" style="stop-color:white;stop-opacity:1"/><stop offset="0.41" style="stop-color:rgb(209,195,255);stop-opacity:1"/><stop offset="0.64" style="stop-color:rgb(172,147,255);stop-opacity:1"/><stop offset="1" style="stop-color:rgb(172,147,255);stop-opacity:1"/></linearGradient>
        <linearGradient id="_Linear6" x1="0" y1="0" x2="1" y2="-0.0109599" gradientUnits="userSpaceOnUse" gradientTransform="matrix(1,-8.32667e-17,-8.32667e-17,-1,-2.66454e-15,-0.320328)"><stop offset="0" style="stop-color:white;stop-opacity:1"/><stop offset="0.32" style="stop-color:rgb(209,195,255);stop-opacity:1"/><stop offset="0.72" style="stop-color:rgb(172,147,255);stop-opacity:1"/><stop offset="0.97" style="stop-color:rgb(172,147,255);stop-opacity:1"/><stop offset="1" style="stop-color:rgb(130,98,232);stop-opacity:1"/></linearGradient>
        <linearGradient id="_Linear7" x1="0" y1="0" x2="1" y2="0" gradientUnits="userSpaceOnUse" gradientTransform="matrix(1,0,0,-1,0,-0.00154576)"><stop offset="0" style="stop-color:white;stop-opacity:1"/><stop offset="0.26" style="stop-color:rgb(209,195,255);stop-opacity:1"/><stop offset="0.54" style="stop-color:rgb(209,195,255);stop-opacity:1"/><stop offset="0.92" style="stop-color:rgb(172,147,255);stop-opacity:1"/><stop offset="1" style="stop-color:rgb(130,98,232);stop-opacity:1"/></linearGradient>
        <linearGradient id="_Linear8" x1="0" y1="0" x2="1" y2="0" gradientUnits="userSpaceOnUse" gradientTransform="matrix(1,-5.55112e-17,-5.55112e-17,-1,0,1.31356e-06)"><stop offset="0" style="stop-color:white;stop-opacity:1"/><stop offset="1" style="stop-color:rgb(209,195,255);stop-opacity:1"/></linearGradient>
        <linearGradient id="_Linear9" x1="0" y1="0" x2="1" y2="0" gradientUnits="userSpaceOnUse" gradientTransform="matrix(0.995483,-0.0129544,-0.0129544,-0.995483,0.00451748,0.0129522)"><stop offset="0" style="stop-color:white;stop-opacity:1"/><stop offset="0.5" style="stop-color:rgb(197,179,255);stop-opacity:1"/><stop offset="1" style="stop-color:rgb(172,147,255);stop-opacity:1"/></linearGradient>
        <linearGradient id="_Linear10" x1="0" y1="0" x2="1" y2="-0.129001" gradientUnits="userSpaceOnUse" gradientTransform="matrix(1.08503,0.00047842,0.00047842,-1.08503,-0.0850258,-0.0960173)"><stop offset="0" style="stop-color:white;stop-opacity:1"/><stop offset="0.19" style="stop-color:rgb(209,195,255);stop-opacity:1"/><stop offset="0.47" style="stop-color:rgb(172,147,255);stop-opacity:1"/><stop offset="1" style="stop-color:rgb(130,98,232);stop-opacity:1"/></linearGradient>
        <linearGradient id="_Linear11" x1="0" y1="0" x2="1" y2="-0.146697" gradientUnits="userSpaceOnUse" gradientTransform="matrix(1.01498,0.059258,0.0613436,-1.00114,-0.231304,-0.0269389)"><stop offset="0" style="stop-color:rgb(172,147,255);stop-opacity:1"/><stop offset="0.05" style="stop-color:rgb(172,147,255);stop-opacity:1"/><stop offset="0.56" style="stop-color:rgb(130,98,232);stop-opacity:1"/><stop offset="1" style="stop-color:rgb(66,13,242);stop-opacity:1"/></linearGradient>
        <linearGradient id="_Linear12" x1="0" y1="0" x2="1" y2="-0.068979" gradientUnits="userSpaceOnUse" gradientTransform="matrix(1.6483,0.0963501,0.083709,-1.65738,-0.0861784,-0.0594607)"><stop offset="0" style="stop-color:white;stop-opacity:1"/><stop offset="0.17" style="stop-color:rgb(209,195,255);stop-opacity:1"/><stop offset="0.44" style="stop-color:rgb(172,147,255);stop-opacity:1"/><stop offset="0.87" style="stop-color:rgb(66,13,242);stop-opacity:1"/><stop offset="1" style="stop-color:rgb(66,13,242);stop-opacity:1"/></linearGradient>
        <radialGradient id="_Radial13" cx="0" cy="0" r="1" gradientUnits="userSpaceOnUse" gradientTransform="matrix(0.280462,-3.68268,-3.68268,-0.280462,0.0757393,2.1648)"><stop offset="0" style="stop-color:rgb(172,147,255);stop-opacity:1"/><stop offset="0.64" style="stop-color:rgb(66,13,242);stop-opacity:1"/><stop offset="1" style="stop-color:rgb(78,0,8);stop-opacity:1"/></radialGradient>
        <linearGradient id="_Linear14" x1="0" y1="0" x2="1" y2="-0.127215" gradientUnits="userSpaceOnUse" gradientTransform="matrix(1.17107,-0.240277,-0.188721,-1.14819,0.0104394,0.22044)"><stop offset="0" style="stop-color:rgb(172,147,255);stop-opacity:1"/><stop offset="0.28" style="stop-color:rgb(172,147,255);stop-opacity:1"/><stop offset="0.64" style="stop-color:rgb(130,98,232);stop-opacity:1"/><stop offset="1" style="stop-color:rgb(66,13,242);stop-opacity:1"/></linearGradient>
        <linearGradient id="_Linear15" x1="0" y1="0" x2="1" y2="-0.0210732" gradientUnits="userSpaceOnUse" gradientTransform="matrix(1.93898,0.509437,0.729375,-2.78003,-0.301815,-0.212035)"><stop offset="0" style="stop-color:rgb(130,98,232);stop-opacity:1"/><stop offset="0.27" style="stop-color:rgb(63,11,232);stop-opacity:1"/><stop offset="0.54" style="stop-color:rgb(39,0,166);stop-opacity:1"/><stop offset="1" style="stop-color:rgb(78,0,8);stop-opacity:1"/></linearGradient>
        <linearGradient id="_Linear16" x1="0" y1="0" x2="1" y2="-0.153371" gradientUnits="userSpaceOnUse" gradientTransform="matrix(2.07943,0.284845,0.284845,-2.07943,-0.096327,0.0611043)"><stop offset="0" style="stop-color:rgb(130,98,232);stop-opacity:1"/><stop offset="1" style="stop-color:rgb(78,0,8);stop-opacity:1"/></linearGradient>
        <linearGradient id="_Linear17" x1="0" y1="0" x2="1" y2="-0.152947" gradientUnits="userSpaceOnUse" gradientTransform="matrix(3.68937,0.0882052,0.0882052,-3.68937,-0.663287,-0.157769)"><stop offset="0" style="stop-color:rgb(130,98,232);stop-opacity:1"/><stop offset="1" style="stop-color:rgb(78,0,8);stop-opacity:1"/></linearGradient>
        <linearGradient id="_Linear18" x1="0" y1="0" x2="1" y2="0.1527" gradientUnits="userSpaceOnUse" gradientTransform="matrix(1,0,0,-1,-2.22045e-16,0.017954)"><stop offset="0" style="stop-color:rgb(172,147,255);stop-opacity:1"/><stop offset="0.22" style="stop-color:rgb(172,147,255);stop-opacity:1"/><stop offset="0.71" style="stop-color:rgb(66,13,242);stop-opacity:1"/><stop offset="1" style="stop-color:rgb(66,13,242);stop-opacity:1"/></linearGradient>
    </defs>
</svg>
