<?xml version="1.0" encoding="UTF-8" standalone="no"?>
<!DOCTYPE svg PUBLIC "-//W3C//DTD SVG 1.1//EN" "http://www.w3.org/Graphics/SVG/1.1/DTD/svg11.dtd">
<svg width="100%" height="100%" viewBox="0 0 130 139" version="1.1" xmlns="http://www.w3.org/2000/svg" xmlns:xlink="http://www.w3.org/1999/xlink" xml:space="preserve" xmlns:serif="http://www.serif.com/" style="fill-rule:evenodd;clip-rule:evenodd;stroke-linejoin:round;stroke-miterlimit:2;">
    <g transform="matrix(1,0,0,1,-508.968,-287.844)">
        <path d="M524.18,346.474L524.18,336.843C524.335,309.774 546.361,287.844 573.468,287.844C600.637,287.844 622.702,309.875 622.757,337.029L622.757,346.474L629.998,346.474C634.397,346.474 637.968,350.045 637.968,354.444L637.968,418.208C637.968,422.607 634.397,426.178 629.998,426.178L516.938,426.178C512.539,426.178 508.968,422.607 508.968,418.208L508.968,354.444C508.968,350.045 512.539,346.474 516.938,346.474L524.18,346.474ZM601.074,346.474L601.074,337.015C601.01,321.832 588.665,309.527 573.468,309.527C558.312,309.527 545.991,321.767 545.863,336.894L545.79,346.474L601.074,346.474Z"/>
    </g>
</svg>
