<?xml version="1.0" encoding="UTF-8" standalone="no"?><!DOCTYPE svg PUBLIC "-//W3C//DTD SVG 1.1//EN" "http://www.w3.org/Graphics/SVG/1.1/DTD/svg11.dtd"><svg width="100%" height="100%" viewBox="0 0 345 345" version="1.1" xmlns="http://www.w3.org/2000/svg" xmlns:xlink="http://www.w3.org/1999/xlink" xml:space="preserve" xmlns:serif="http://www.serif.com/" style="fill-rule:evenodd;clip-rule:evenodd;stroke-linejoin:round;stroke-miterlimit:2;"><path d="M62.263,202.437c10.615,38.79 41.216,69.359 80.025,79.93l-17.036,62.263c-60.746,-16.568 -108.64,-64.43 -125.252,-125.157l62.263,-17.036Zm220.111,-0.155l62.263,17.036c-16.573,60.801 -64.496,108.73 -125.294,125.312l-17.036,-62.263c38.861,-10.585 69.491,-41.221 80.067,-80.085Zm-62.901,-202.282c60.736,16.615 108.603,64.519 125.164,125.277l-62.263,17.036c-10.564,-38.821 -41.138,-69.432 -79.937,-80.05l17.036,-62.263Zm-94.351,0l17.036,62.263c-38.747,10.604 -69.291,41.148 -79.895,79.895l-62.263,-17.036c16.601,-60.684 64.438,-108.521 125.122,-125.122Z" style="fill:#fff;"/></svg>