<?xml version="1.0" encoding="UTF-8" standalone="no"?><!DOCTYPE svg PUBLIC "-//W3C//DTD SVG 1.1//EN" "http://www.w3.org/Graphics/SVG/1.1/DTD/svg11.dtd"><svg width="100%" height="100%" viewBox="0 0 332 332" version="1.1" xmlns="http://www.w3.org/2000/svg" xmlns:xlink="http://www.w3.org/1999/xlink" xml:space="preserve" xmlns:serif="http://www.serif.com/" style="fill-rule:evenodd;clip-rule:evenodd;stroke-linejoin:round;stroke-miterlimit:2;"><path d="M330.911,157.35c0.738,14.916 -0.547,30.178 -4.071,45.441c-17.421,75.462 -84.001,126.898 -158.104,128.292l-0.847,-44.626c54.121,-1.023 102.745,-38.591 115.469,-93.704c2.57,-11.13 3.51,-22.258 2.976,-33.135l44.577,-2.268Zm-310.449,-71.528l39.072,21.58c-5.214,9.507 -9.222,19.878 -11.78,30.957c-12.724,55.114 14.511,110.195 62.705,134.839l-20.324,39.738c-65.991,-33.737 -103.285,-109.154 -85.863,-184.615c3.512,-15.214 9.023,-29.451 16.19,-42.499Zm54.872,-59.004c36.363,-23.64 81.902,-33.063 127.457,-22.546c45.453,10.493 82.19,38.822 104.524,75.886l-38.21,23.038c-16.312,-27.079 -43.148,-47.776 -76.352,-55.442c-33.307,-7.69 -66.603,-0.785 -93.176,16.52l-24.243,-37.456Z" style="fill:#fff;"/></svg>