<?xml version="1.0" encoding="UTF-8" standalone="no"?><!DOCTYPE svg PUBLIC "-//W3C//DTD SVG 1.1//EN" "http://www.w3.org/Graphics/SVG/1.1/DTD/svg11.dtd"><svg width="100%" height="100%" viewBox="0 0 239 228" version="1.1" xmlns="http://www.w3.org/2000/svg" xmlns:xlink="http://www.w3.org/1999/xlink" xml:space="preserve" xmlns:serif="http://www.serif.com/" style="fill-rule:evenodd;clip-rule:evenodd;stroke-linecap:round;stroke-linejoin:round;stroke-miterlimit:1.5;"><rect x="36.566" y="46.29" width="165.345" height="170.169" style="fill:none;stroke:#000;stroke-width:23px;"/><path d="M147.54,0.038l0.946,0.113l0.935,0.188l0.916,0.262l0.893,0.333l0.864,0.404l0.828,0.47l0.789,0.535l0.744,0.596l0.695,0.653l0.64,0.706l0.582,0.755l0.521,0.798l0.455,0.838l12.987,26.311l56.435,0l0.991,0.041l0.984,0.123l0.971,0.203l0.95,0.283l0.924,0.361l0.891,0.435l0.852,0.508l0.808,0.576l0.756,0.641l0.702,0.702l0.641,0.756l0.576,0.808l0.508,0.852l0.435,0.891l0.361,0.924l0.283,0.95l0.203,0.971l0.123,0.984l0.041,0.991l-0.041,0.991l-0.123,0.984l-0.203,0.971l-0.283,0.95l-0.361,0.924l-0.435,0.891l-0.508,0.852l-0.576,0.808l-0.641,0.756l-0.702,0.702l-0.756,0.641l-0.808,0.576l-0.852,0.508l-0.891,0.435l-0.924,0.361l-0.95,0.283l-0.971,0.203l-0.984,0.123l-0.991,0.041l-63.894,0l-0.952,-0.038l-0.946,-0.113l-0.935,-0.188l-0.916,-0.262l-0.893,-0.333l-0.864,-0.404l-0.829,-0.47l-0.789,-0.535l-0.743,-0.596l-0.695,-0.653l-0.64,-0.706l-0.582,-0.755l-0.521,-0.798l-0.455,-0.838l-12.988,-26.311l-40.923,0l-12.278,26.107l-0.448,0.86l-0.516,0.821l-0.58,0.777l-0.642,0.728l-0.698,0.673l-0.75,0.615l-0.797,0.552l-0.84,0.486l-0.875,0.417l-0.907,0.344l-0.931,0.271l-0.951,0.194l-0.962,0.116l-0.97,0.039l-63.067,-0.039l-0.991,-0.042l-0.984,-0.123l-0.971,-0.204l-0.95,-0.284l-0.924,-0.361l-0.891,-0.436l-0.852,-0.508l-0.806,-0.577l-0.757,-0.641l-0.701,-0.702l-0.64,-0.757l-0.576,-0.808l-0.507,-0.852l-0.435,-0.892l-0.36,-0.924l-0.283,-0.95l-0.203,-0.971l-0.122,-0.985l-0.04,-0.991l0.042,-0.99l0.123,-0.985l0.204,-0.97l0.284,-0.95l0.361,-0.924l0.436,-0.891l0.508,-0.852l0.577,-0.806l0.641,-0.757l0.702,-0.701l0.757,-0.64l0.808,-0.576l0.852,-0.507l0.891,-0.435l0.925,-0.36l0.95,-0.283l0.971,-0.203l0.984,-0.122l0.991,-0.04l55.446,0.034l12.275,-26.102l0.448,-0.86l0.516,-0.821l0.58,-0.776l0.641,-0.727l0.697,-0.673l0.75,-0.615l0.796,-0.552l0.839,-0.486l0.875,-0.417l0.906,-0.345l0.931,-0.27l0.95,-0.195l0.962,-0.117l0.969,-0.039l56,0l0.952,0.038Z"/><path d="M92.429,78.064l0.627,0.05l0.622,0.082l0.618,0.114l0.611,0.147l0.602,0.178l0.593,0.21l0.58,0.24l0.567,0.271l0.552,0.3l0.536,0.328l0.518,0.356l0.498,0.382l0.478,0.408l0.455,0.433l0.433,0.455l0.408,0.478l0.382,0.498l0.356,0.518l0.328,0.536l0.3,0.552l0.271,0.567l0.24,0.58l0.21,0.593l0.178,0.602l0.147,0.611l0.114,0.618l0.082,0.623l0.05,0.626l0.016,0.628l0,82.581l-0.016,0.628l-0.05,0.626l-0.082,0.623l-0.114,0.618l-0.147,0.611l-0.178,0.602l-0.21,0.593l-0.24,0.58l-0.271,0.567l-0.3,0.552l-0.328,0.536l-0.356,0.518l-0.382,0.498l-0.408,0.478l-0.433,0.455l-0.455,0.433l-0.478,0.408l-0.498,0.382l-0.518,0.356l-0.536,0.328l-0.552,0.3l-0.567,0.271l-0.58,0.24l-0.593,0.21l-0.602,0.178l-0.611,0.147l-0.618,0.114l-0.622,0.082l-0.627,0.05l-0.628,0.016l-0.628,-0.016l-0.626,-0.05l-0.623,-0.082l-0.618,-0.114l-0.611,-0.147l-0.602,-0.178l-0.592,-0.21l-0.581,-0.24l-0.567,-0.271l-0.552,-0.3l-0.535,-0.328l-0.518,-0.356l-0.499,-0.382l-0.477,-0.408l-0.456,-0.433l-0.433,-0.455l-0.408,-0.478l-0.382,-0.498l-0.356,-0.518l-0.328,-0.536l-0.3,-0.552l-0.27,-0.567l-0.241,-0.58l-0.209,-0.593l-0.179,-0.602l-0.147,-0.611l-0.114,-0.618l-0.082,-0.623l-0.049,-0.626l-0.017,-0.628l0,-82.581l0.017,-0.628l0.049,-0.626l0.082,-0.623l0.114,-0.618l0.147,-0.611l0.179,-0.602l0.209,-0.593l0.241,-0.58l0.27,-0.567l0.3,-0.552l0.328,-0.536l0.356,-0.518l0.382,-0.498l0.408,-0.478l0.433,-0.455l0.456,-0.433l0.477,-0.408l0.499,-0.382l0.518,-0.356l0.535,-0.328l0.552,-0.3l0.567,-0.271l0.581,-0.24l0.592,-0.21l0.602,-0.178l0.611,-0.147l0.618,-0.114l0.623,-0.082l0.626,-0.05l0.628,-0.016l0.628,0.016Z"/><path d="M147.429,78.064l0.627,0.05l0.622,0.082l0.618,0.114l0.611,0.147l0.602,0.178l0.593,0.21l0.58,0.24l0.567,0.271l0.552,0.3l0.536,0.328l0.518,0.356l0.498,0.382l0.478,0.408l0.455,0.433l0.433,0.455l0.408,0.478l0.382,0.498l0.356,0.518l0.328,0.536l0.3,0.552l0.271,0.567l0.24,0.58l0.21,0.593l0.178,0.602l0.147,0.611l0.114,0.618l0.082,0.623l0.05,0.626l0.016,0.628l0,82.581l-0.016,0.628l-0.05,0.626l-0.082,0.623l-0.114,0.618l-0.147,0.611l-0.178,0.602l-0.21,0.593l-0.24,0.58l-0.271,0.567l-0.3,0.552l-0.328,0.536l-0.356,0.518l-0.382,0.498l-0.408,0.478l-0.433,0.455l-0.455,0.433l-0.478,0.408l-0.498,0.382l-0.518,0.356l-0.536,0.328l-0.552,0.3l-0.567,0.271l-0.58,0.24l-0.593,0.21l-0.602,0.178l-0.611,0.147l-0.618,0.114l-0.622,0.082l-0.627,0.05l-0.628,0.016l-0.628,-0.016l-0.626,-0.05l-0.623,-0.082l-0.618,-0.114l-0.611,-0.147l-0.602,-0.178l-0.592,-0.21l-0.581,-0.24l-0.567,-0.271l-0.552,-0.3l-0.535,-0.328l-0.518,-0.356l-0.499,-0.382l-0.477,-0.408l-0.456,-0.433l-0.433,-0.455l-0.408,-0.478l-0.382,-0.498l-0.356,-0.518l-0.328,-0.536l-0.3,-0.552l-0.27,-0.567l-0.241,-0.58l-0.209,-0.593l-0.179,-0.602l-0.147,-0.611l-0.114,-0.618l-0.082,-0.623l-0.049,-0.626l-0.017,-0.628l0,-82.581l0.017,-0.628l0.049,-0.626l0.082,-0.623l0.114,-0.618l0.147,-0.611l0.179,-0.602l0.209,-0.593l0.241,-0.58l0.27,-0.567l0.3,-0.552l0.328,-0.536l0.356,-0.518l0.382,-0.498l0.408,-0.478l0.433,-0.455l0.456,-0.433l0.477,-0.408l0.499,-0.382l0.518,-0.356l0.535,-0.328l0.552,-0.3l0.567,-0.271l0.581,-0.24l0.592,-0.21l0.602,-0.178l0.611,-0.147l0.618,-0.114l0.623,-0.082l0.626,-0.05l0.628,-0.016l0.628,0.016Z"/></svg>