<?xml version="1.0" encoding="UTF-8" standalone="no"?>
<!DOCTYPE svg PUBLIC "-//W3C//DTD SVG 1.1//EN" "http://www.w3.org/Graphics/SVG/1.1/DTD/svg11.dtd">
<svg width="100%" height="100%" viewBox="0 0 445 326" version="1.1" xmlns="http://www.w3.org/2000/svg" xmlns:xlink="http://www.w3.org/1999/xlink" xml:space="preserve" xmlns:serif="http://www.serif.com/" style="fill-rule:evenodd;clip-rule:evenodd;stroke-miterlimit:7;">
    <g transform="matrix(1,0,0,1,-5955.35,-2426.7)">
        <g transform="matrix(3.87719,0,0,1.05236,1305.5,2313.94)">
            <g transform="matrix(0.176406,0,0,0.778013,258.9,-1713.71)">
                <path d="M5664.8,2360.59C5664.8,2351.88 5656.34,2344.82 5645.92,2344.82L5353.66,2344.82C5343.24,2344.82 5334.79,2351.88 5334.79,2360.59L5334.79,2407.89C5334.79,2416.59 5343.24,2423.66 5353.66,2423.66L5645.92,2423.66C5656.34,2423.66 5664.8,2416.59 5664.8,2407.89L5664.8,2360.59Z" style="fill:white;stroke:white;stroke-width:1.02px;"/>
            </g>
        </g>
        <g transform="matrix(3.87719,0,0,1.05236,1305.5,2313.94)">
            <g transform="matrix(0.176406,0,0,0.778013,258.9,-1590.65)">
                <path d="M5664.8,2360.59C5664.8,2351.88 5656.34,2344.82 5645.92,2344.82L5353.66,2344.82C5343.24,2344.82 5334.79,2351.88 5334.79,2360.59L5334.79,2407.89C5334.79,2416.59 5343.24,2423.66 5353.66,2423.66L5645.92,2423.66C5656.34,2423.66 5664.8,2416.59 5664.8,2407.89L5664.8,2360.59Z" style="fill:white;stroke:white;stroke-width:1.02px;"/>
            </g>
        </g>
        <g transform="matrix(3.87719,0,0,1.05236,1305.5,2313.94)">
            <g transform="matrix(0.140667,0,0,0.778013,516.29,-1590.65)">
                <path d="M5664.8,2360.59C5664.8,2351.88 5654.19,2344.82 5641.12,2344.82L5358.46,2344.82C5345.39,2344.82 5334.79,2351.88 5334.79,2360.59L5334.79,2407.89C5334.79,2416.59 5345.39,2423.66 5358.46,2423.66L5641.12,2423.66C5654.19,2423.66 5664.8,2416.59 5664.8,2407.89L5664.8,2360.59Z" style="fill:white;stroke:white;stroke-width:1.11px;"/>
            </g>
        </g>
        <g transform="matrix(3.87719,0,0,1.05236,1305.5,2313.94)">
            <g transform="matrix(0.140667,0,0,0.778013,516.29,-1714.55)">
                <path d="M5664.8,2360.59C5664.8,2351.88 5654.19,2344.82 5641.12,2344.82L5358.46,2344.82C5345.39,2344.82 5334.79,2351.88 5334.79,2360.59L5334.79,2407.89C5334.79,2416.59 5345.39,2423.66 5358.46,2423.66L5641.12,2423.66C5654.19,2423.66 5664.8,2416.59 5664.8,2407.89L5664.8,2360.59Z" style="fill:white;stroke:white;stroke-width:1.11px;"/>
            </g>
        </g>
        <g transform="matrix(3.87719,0,0,1.05236,1305.5,2313.94)">
            <g transform="matrix(0.176406,0,0,0.778013,258.9,-1471.5)">
                <path d="M5664.8,2360.59C5664.8,2351.88 5656.34,2344.82 5645.92,2344.82L5353.66,2344.82C5343.24,2344.82 5334.79,2351.88 5334.79,2360.59L5334.79,2407.89C5334.79,2416.59 5343.24,2423.66 5353.66,2423.66L5645.92,2423.66C5656.34,2423.66 5664.8,2416.59 5664.8,2407.89L5664.8,2360.59Z" style="fill:white;stroke:white;stroke-width:1.02px;"/>
            </g>
        </g>
    </g>
</svg>
