<?xml version="1.0" encoding="UTF-8" standalone="no"?>
<!DOCTYPE svg PUBLIC "-//W3C//DTD SVG 1.1//EN" "http://www.w3.org/Graphics/SVG/1.1/DTD/svg11.dtd">
<svg width="100%" height="100%" viewBox="0 0 444 340" version="1.1" xmlns="http://www.w3.org/2000/svg" xmlns:xlink="http://www.w3.org/1999/xlink" xml:space="preserve" xmlns:serif="http://www.serif.com/" style="fill-rule:evenodd;clip-rule:evenodd;stroke-miterlimit:7;">
    <g transform="matrix(1,0,0,1,-5159.56,-2422.24)">
        <g transform="matrix(3.87719,0,0,1.05236,1305.5,2313.94)">
            <g transform="matrix(0.256619,0,0,0.778013,-346.062,-1709.73)">
                <path d="M5664.8,2360.59C5664.8,2351.88 5658.98,2344.82 5651.82,2344.82L5347.76,2344.82C5340.6,2344.82 5334.79,2351.88 5334.79,2360.59L5334.79,2407.89C5334.79,2416.59 5340.6,2423.66 5347.76,2423.66L5651.82,2423.66C5658.98,2423.66 5664.8,2416.59 5664.8,2407.89L5664.8,2360.59Z" style="fill:white;stroke:white;stroke-width:0.85px;"/>
            </g>
        </g>
        <g transform="matrix(3.87719,0,0,1.05236,1305.5,2313.94)">
            <g transform="matrix(0.256619,0,0,0.778013,-346.062,-1590.65)">
                <path d="M5664.8,2360.59C5664.8,2351.88 5658.98,2344.82 5651.82,2344.82L5347.76,2344.82C5340.6,2344.82 5334.79,2351.88 5334.79,2360.59L5334.79,2407.89C5334.79,2416.59 5340.6,2423.66 5347.76,2423.66L5651.82,2423.66C5658.98,2423.66 5664.8,2416.59 5664.8,2407.89L5664.8,2360.59Z" style="fill:white;stroke:white;stroke-width:0.85px;"/>
            </g>
        </g>
        <g transform="matrix(3.87719,0,0,1.05236,1305.5,2313.94)">
            <g transform="matrix(0.256619,0,0,0.778013,-346.062,-1471.5)">
                <path d="M5664.8,2360.59C5664.8,2351.88 5658.98,2344.82 5651.82,2344.82L5347.76,2344.82C5340.6,2344.82 5334.79,2351.88 5334.79,2360.59L5334.79,2407.89C5334.79,2416.59 5340.6,2423.66 5347.76,2423.66L5651.82,2423.66C5658.98,2423.66 5664.8,2416.59 5664.8,2407.89L5664.8,2360.59Z" style="fill:white;stroke:white;stroke-width:0.85px;"/>
            </g>
        </g>
        <g transform="matrix(3.87719,0,0,1.05236,1305.5,2313.94)">
            <g transform="matrix(0.283116,0,0,1.04308,-440.118,-1278.24)">
                <circle cx="5106.19" cy="1364.7" r="32.426" style="fill:white;stroke:white;stroke-width:16.3px;stroke-linecap:round;stroke-linejoin:round;"/>
            </g>
        </g>
        <g transform="matrix(3.87719,0,0,1.05236,1305.5,2313.94)">
            <g transform="matrix(0.283116,0,0,1.04308,-440.118,-1159.17)">
                <circle cx="5106.19" cy="1364.7" r="32.426" style="fill:white;stroke:white;stroke-width:16.3px;stroke-linecap:round;stroke-linejoin:round;"/>
            </g>
        </g>
        <g transform="matrix(3.87719,0,0,1.05236,1305.5,2313.94)">
            <g transform="matrix(0.283116,0,0,1.04308,-440.118,-1040.01)">
                <circle cx="5106.19" cy="1364.7" r="32.426" style="fill:white;stroke:white;stroke-width:16.3px;stroke-linecap:round;stroke-linejoin:round;"/>
            </g>
        </g>
    </g>
</svg>
