<?xml version="1.0" encoding="UTF-8" standalone="no"?>
<!DOCTYPE svg PUBLIC "-//W3C//DTD SVG 1.1//EN" "http://www.w3.org/Graphics/SVG/1.1/DTD/svg11.dtd">
<svg width="100%" height="100%" viewBox="0 0 114 137" version="1.1" xmlns="http://www.w3.org/2000/svg" xmlns:xlink="http://www.w3.org/1999/xlink" xml:space="preserve" xmlns:serif="http://www.serif.com/" style="fill-rule:evenodd;clip-rule:evenodd;stroke-linecap:round;stroke-miterlimit:7;">
    <g transform="matrix(1,0,0,1,-5461.82,-4374.17)">
        <g transform="matrix(1.118,0,0,0.688412,-3116.01,2705.24)">
            <g transform="matrix(-0.287446,5.71691e-17,-3.5202e-17,-0.466821,8917.7,3698.48)">
                <path d="M4155.39,2401.94L4321.12,2567.67L3989.65,2567.67L4155.39,2401.94Z" style="fill:white;stroke:white;stroke-width:3.09px;"/>
            </g>
        </g>
        <g transform="matrix(1.118,0,0,0.688412,-3116.01,2705.24)">
            <g transform="matrix(0.452307,0,0,0.73456,5884.68,833.285)">
                <rect x="4016.07" y="2172.91" width="97.593" height="97.593" style="fill:white;stroke:white;stroke-width:1.96px;"/>
            </g>
        </g>
        <g transform="matrix(1.118,0,0,0.688412,-3116.01,2705.24)">
            <g transform="matrix(0.456977,0,0,1.0133,5875.42,32.4649)">
                <rect x="3940.82" y="2528.79" width="205.545" height="21.809" style="fill:white;stroke:white;stroke-width:1.63px;"/>
            </g>
        </g>
    </g>
</svg>
